<svg width="800" height="600" xmlns="http://www.w3.org/2000/svg">
 <!-- Created with Method Draw - http://github.com/duopixel/Method-Draw/ -->

 <g>
  <title>background</title>
  <rect fill="#fff" id="canvas_background" height="602" width="802" y="-1" x="-1"/>
  <g display="none" overflow="visible" y="0" x="0" height="100%" width="100%" id="canvasGrid">
   <rect fill="url(#gridpattern)" stroke-width="0" y="0" x="0" height="100%" width="100%"/>
  </g>
 </g>
 <g>
  <title>Layer 1</title>
  <polygon stroke="null" id="svg_16" fill="#ecbcb4" points="405.0580139160156,462.3584215641022 404.3238525390625,473.84423089027405 389.3964538574219,468.1013414859772 395.514404296875,459.4877245426178 405.0580139160156,462.3584215641022 "/>
  <polygon stroke="null" id="svg_17" fill="#ecbcb4" points="459.38568115234375,458.6264269351959 458.65155029296875,469.8239367008209 450.331298828125,471.2597887516022 445.4371337890625,465.80468010902405 451.0654296875,455.18065667152405 459.38568115234375,458.6264269351959 "/>
  <path stroke="null" id="svg_18" fill="#2f2e41" d="m465.50374,315.63542s6.6074,9.18816 -1.71303,23.25753s-18.35389,27.8516 -18.35389,27.8516l-18.59861,41.34671s-9.54402,40.48532 -11.74649,41.63384s-3.42606,-3.44556 -2.20247,1.43565s0.48944,4.59408 -0.48944,4.88121s-3.67077,-0.28713 -2.6919,1.72278s1.71303,2.00991 -0.24472,2.00991s-2.6919,-1.43565 -2.6919,0.57426s-1.71303,6.60398 -1.71303,6.60398s-11.9912,-4.01982 -12.48064,-5.7426s3.18134,-2.58416 2.44718,-4.30695s-0.97887,-1.72278 -0.97887,-4.30695s1.46831,-3.15842 1.46831,-3.15842s1.22359,-0.57426 0.73416,-1.72278s-2.44719,-0.57426 0,-2.00991s12.48064,-45.36653 12.48064,-45.36653s0,-21.82188 3.18134,-29.00012s0.73416,-58.28738 8.32043,-58.86164s45.27292,3.15843 45.27292,3.15843z"/>
  <path stroke="null" id="svg_19" fill="#2f2e41" d="m463.05656,332.00183l-1.46831,44.50514s7.34155,43.06949 4.89437,56.27747s-0.73416,11.4852 -2.20247,13.78224s-2.6919,1.14852 -1.46831,3.15843s1.95775,2.58417 0,4.88121s-2.93662,7.75251 -2.93662,7.75251l-12.48065,-1.43565s3.18134,-6.60398 1.95775,-8.03964s-4.40493,0.86139 -1.95775,-2.29704s3.9155,-1.72278 2.44718,-3.15842s-3.67077,-0.86139 -1.71303,-3.15843s4.16021,-2.29704 2.20247,-3.15843s-4.16021,0 -3.18134,-1.72278s2.20247,-3.73269 2.20247,-3.73269l-2.93662,-26.1288s-3.42606,-8.6139 -2.44718,-12.34659s-4.16022,-34.45559 -4.16022,-34.45559l23.24827,-30.72293z"/>
  <path stroke="null" id="svg_20" fill="#2f2e41" d="m457.67275,464.36874s2.44718,-2.8713 3.18134,-1.14852s6.11796,17.2278 2.93662,18.37631s-7.83099,2.29704 -10.27818,1.43565s-7.58628,-4.88121 -13.70424,-4.88121s-11.25703,-3.15843 -11.25703,-4.30695s-0.97888,-8.03964 3.67078,-8.03964s13.2148,-6.31687 13.2148,-6.31687s1.95775,-4.59408 2.93662,-4.30695s0.24472,9.47529 0.24472,9.47529s5.62851,6.31687 9.05456,-0.28712z"/>
  <path stroke="null" id="svg_21" fill="#2f2e41" d="m403.34522,468.10143s2.20247,-6.31687 4.40493,-4.88121s0.73415,19.23772 0.73415,19.23772s-1.95775,3.73269 -7.58627,2.8713s-20.55636,-2.8713 -23.98241,-2.00991s-12.72536,-4.01982 -10.27818,-10.62381c0,0 1.22359,-3.73269 7.09683,-3.44556s16.64085,-8.03964 16.64085,-8.03964s1.71303,-5.74259 2.20247,-5.16833s0.97888,10.62381 0.97888,10.62381s6.3627,4.88119 9.78875,1.43563z"/>
  <circle stroke="null" transform="matrix(0.48074101675951847,0,0,0.5640568361330699,-5269.843083796442,-5173.4420085599895) " id="svg_22" fill="#ecbcb4" r="29.52457" cy="9502.86521" cx="11867.60906"/>
  <path stroke="null" id="svg_23" fill="#ecbcb4" d="m446.4157,187.86259s7.58627,17.80206 10.27818,19.52483s-18.35388,12.34659 -18.35388,12.34659s-3.42606,-17.51493 -7.58628,-21.24762s15.66198,-10.6238 15.66198,-10.6238z"/>
  <path stroke="null" id="svg_24" fill="#ecbcb4" d="m424.63575,333.43748l-0.97888,10.91094s-10.52289,-4.30695 -7.09683,-12.34659l8.07571,1.43565z"/>
  <path stroke="null" id="svg_25" fill="#f0f0f0" d="m420.47697,317.07144c7.34136,9.18582 46.24983,1.43287 46.24983,1.43287l-0.48743,-6.60337l4.89424,-6.02576l-1.46739,-28.14066s4.40195,-13.2067 5.13576,-33.30557a15.43336,18.10807 0 0 0 -0.18952,-3.69323c-2.5227,-18.00511 -27.51023,-29.60125 -28.19666,-29.32913c-0.34553,0.13329 -4.02337,2.38258 -7.86208,4.74842c-4.4068,2.71577 -9.02185,5.58703 -9.02185,5.58703c-5.87417,2.58805 -4.89424,43.9354 -6.85392,47.66748s0,16.65004 0,16.65004l-2.20098,12.34588s-7.34159,9.48019 0,18.66601z"/>
  <path stroke="null" id="svg_26" opacity="0.1" d="m444.19466,225.91866s6.85212,24.11891 5.38382,40.48532s-17.37501,63.16859 -17.37501,63.16859l-5.38382,3.44556l0,8.03964l-3.7867,-12.03472l10.41343,-25.54706s-12.98941,-88.18114 10.74828,-77.55734z"/>
  <path stroke="null" id="svg_27" opacity="0.1" d="m437.7679,218.68197c7.10006,-4.59293 17.86851,7.46971 29.12461,20.38764c4.04233,4.63737 6.38059,4.17084 7.71994,1.66611c-2.5227,-18.00511 -27.51023,-29.60125 -28.19666,-29.32913c-0.34553,0.13329 -4.02337,2.38258 -7.86208,4.74842l-0.78581,2.52696z"/>
  <path stroke="null" id="svg_28" fill="#f0f0f0" d="m437.77005,216.46226l2.93662,-9.47529s20.06692,-11.19807 33.2817,0l2.20247,16.07927s1.95775,26.70309 -9.2993,13.78224s-22.02465,-24.98031 -29.12149,-20.38623z"/>
  <path stroke="null" id="svg_29" fill="#f0f0f0" d="m443.47907,222.03106s6.85212,24.11892 5.38382,40.48533s-17.37501,63.16859 -17.37501,63.16859l-5.38382,3.44556l0,8.03964l-11.25703,-3.73269l2.44718,-9.47529s-3.9155,-5.7426 -1.22359,-7.46538s2.20247,-11.19807 2.20247,-11.19807s1.46829,-93.8915 25.20599,-83.26769z"/>
  <path stroke="null" id="svg_30" fill="#2f2e41" d="m448.05716,193.68542c-0.23188,-1.28705 -0.20014,-2.67177 -0.72621,-3.83347c-0.78878,-1.74181 -2.60136,-2.47156 -4.2761,-2.64264c-2.13809,-0.21841 -4.29269,0.21603 -6.43385,0.044s-4.42876,-1.12924 -5.49448,-3.315c-0.4252,-0.87206 -0.63489,-1.89814 -1.1989,-2.65408c-1.17378,-1.57321 -3.31283,-1.32924 -4.99968,-0.65509s-3.44575,1.65917 -5.17011,1.13158c-1.44978,-4.75948 0.33534,-10.24969 3.42314,-13.77397s7.25256,-5.42072 11.38842,-6.83428c5.45528,-1.86451 11.59464,-2.96646 16.61039,0.16598c7.27317,4.54226 9.83975,16.56406 9.16891,25.52476c-0.25357,3.38701 -0.66856,7.22248 -3.00223,9.5095c-3.42006,3.35164 -8.25674,3.06382 -9.28929,-2.66728z"/>
 </g>
</svg>